<?xml version="1.0" encoding="iso-8859-1"?>
<!-- Generator: Adobe Illustrator 19.0.0, SVG Export Plug-In . SVG Version: 6.00 Build 0)  -->
<svg version="1.1" id="Capa_1" xmlns="http://www.w3.org/2000/svg" xmlns:xlink="http://www.w3.org/1999/xlink" x="0px" y="0px"
	 viewBox="0 0 407.2 407.2" style="enable-background:new 0 0 407.2 407.2;" xml:space="preserve">
<path style="fill:#3897DA;" d="M95,356c-23.2,0-42.4-18.8-42.4-42.4V49.2C52.6,26,71.4,6.8,95,6.8c23.2,0,42.4,18.8,42.4,42.4v264.4
	C137.4,336.8,118.2,356,95,356z"/>
<path style="fill:#F2F2F2;" d="M137.4,58.4c0-26.4-18.8-47.6-42.4-47.6S52.6,32,52.6,58.4H137.4z"/>
<path style="fill:#F5AA11;" d="M321,364.8c-1.2,1.2-2.4,1.6-4,1.6c-2,0-3.6-0.8-4.8-2.4L281,318c-0.8-0.8-1.2-2-1.2-3.2v-272
	c0-9.2,3.6-18,10.4-24.8C297.4,10.8,307,7.2,317,7.2s19.2,3.6,26.4,10.4c7.2,6.8,11.2,15.6,11.2,25.2v272c0,1.2-0.4,2.4-1.2,3.2
	l-31.2,46C321.4,364.4,321.4,364.8,321,364.8z"/>
<path style="fill:#F82029;" d="M357,58.4c0-28.4-12.8-51.2-38.8-51.2c-30.8,0-38.8,22.8-38.8,51.2H357z"/>
<g>
	<path style="fill:#231F20;" d="M144.2,49.2C144.2,22,122.2,0,95,0S45.8,22,45.8,49.2v264.4c0,24.8,18.4,45.2,42.4,48.8V400
		c0,4,3.2,7.2,7.2,7.2s7.2-3.2,7.2-7.2v-37.6c24-3.6,42.4-24,42.4-48.8V70.4h16v115.2h14.4V56.4H145v-7.2H144.2z M95,14.4
		c19.2,0,35.2,15.6,35.2,35.2v6.8H59.8v-6.8C59.8,30,75.4,14.4,95,14.4z M130.2,313.6c0,19.2-15.6,35.2-35.2,35.2
		c-19.2,0-35.2-15.6-35.2-35.2V70.4h70.4L130.2,313.6L130.2,313.6z"/>
	<path style="fill:#231F20;" d="M361,42.8c0-11.6-4.8-22.4-13.2-30.4C339.4,4.4,328.6,0,316.6,0s-23.6,4.8-32,13.2
		c-8,8-12.4,18.4-12.4,29.6v272c0,2.8,0.8,5.2,2.4,7.2l31.6,46c0.8,1.2,2,2.4,3.6,3.2v26c0,4,3.2,7.2,7.2,7.2s7.2-3.2,7.2-7.2v-25.6
		c0.8-0.4,1.6-1.2,2-1.6c0.8-0.8,1.2-1.2,1.6-2l31.2-46c1.6-2,2.4-4.8,2.4-7.2L361,42.8z M295,23.2c5.6-5.6,13.6-8.8,22-8.8
		c8,0,15.6,2.8,21.2,8.4s8.8,12.4,8.8,20.4v13.6h-60.4V43.2C286.6,35.6,289.8,28.4,295,23.2z M286.6,314.4v-244h23.2v0.4V348
		L286.6,314.4z M323.8,348.4V71.2v-0.4H347v244L323.8,348.4z"/>
</g>
<g>
</g>
<g>
</g>
<g>
</g>
<g>
</g>
<g>
</g>
<g>
</g>
<g>
</g>
<g>
</g>
<g>
</g>
<g>
</g>
<g>
</g>
<g>
</g>
<g>
</g>
<g>
</g>
<g>
</g>
</svg>
