<?xml version="1.0" encoding="iso-8859-1"?>
<!-- Generator: Adobe Illustrator 19.0.0, SVG Export Plug-In . SVG Version: 6.00 Build 0)  -->
<svg version="1.1" id="Capa_1" xmlns="http://www.w3.org/2000/svg" xmlns:xlink="http://www.w3.org/1999/xlink" x="0px" y="0px"
	 viewBox="0 0 400.4 400.4" style="enable-background:new 0 0 400.4 400.4;" xml:space="preserve">
<rect x="60.8" y="6.8" style="fill:#3897DA;" width="278.8" height="386"/>
<rect x="151.2" y="115.6" style="fill:#F2F2F2;" width="157.2" height="107.6"/>
<g>
	<path style="fill:#231F20;" d="M339.2,0H60.8c-4,0-7.2,3.2-7.2,7.2v386c0,4,3.2,7.2,7.2,7.2h278.8c4,0,7.2-3.2,7.2-7.2V6.8
		C346.4,3.2,343.2,0,339.2,0z M67.6,14h43.6v372H67.6V14z M332.4,386H125.6V14h206.8V386L332.4,386z"/>
	<path style="fill:#231F20;" d="M151.2,230h157.2c4,0,7.2-3.2,7.2-7.2V115.6c0-4-3.2-7.2-7.2-7.2H151.2c-4,0-7.2,3.2-7.2,7.2v107.6
		C144,226.8,147.2,230,151.2,230z M158.4,122.4h143.2v93.2H158.4V122.4z"/>
	<path style="fill:#231F20;" d="M243.6,130.4H174c-4,0-7.2,3.2-7.2,7.2s3.2,7.2,7.2,7.2h69.6c4,0,7.2-3.2,7.2-7.2
		C250.8,133.2,247.6,130.4,243.6,130.4z"/>
	<path style="fill:#231F20;" d="M243.6,156H174c-4,0-7.2,3.2-7.2,7.2s3.2,7.2,7.2,7.2h69.6c4,0,7.2-3.2,7.2-7.2
		C250.8,159.2,247.6,156,243.6,156z"/>
</g>
<g>
</g>
<g>
</g>
<g>
</g>
<g>
</g>
<g>
</g>
<g>
</g>
<g>
</g>
<g>
</g>
<g>
</g>
<g>
</g>
<g>
</g>
<g>
</g>
<g>
</g>
<g>
</g>
<g>
</g>
</svg>
