<?xml version="1.0" encoding="iso-8859-1"?>
<!-- Generator: Adobe Illustrator 19.0.0, SVG Export Plug-In . SVG Version: 6.00 Build 0)  -->
<svg version="1.1" id="Capa_1" xmlns="http://www.w3.org/2000/svg" xmlns:xlink="http://www.w3.org/1999/xlink" x="0px" y="0px"
	 viewBox="0 0 452 452" style="enable-background:new 0 0 452 452;" xml:space="preserve">
<rect x="53" y="44.8" style="fill:#F2F2F2;" width="345.6" height="248"/>
<g>
	<path style="fill:#3897DA;" d="M429.4,26c0,10.4-8.4,19.2-19.2,19.2H41.4C31,45.2,22.2,36.8,22.2,26l0,0c0-10.4,8.4-19.2,19.2-19.2
		h368.8C420.6,6.8,429.4,15.2,429.4,26L429.4,26z"/>
	<path style="fill:#3897DA;" d="M429.4,312c0,10.4-8.4,19.2-19.2,19.2H41.4c-10.4,0-19.2-8.4-19.2-19.2l0,0
		c0-10.4,8.4-19.2,19.2-19.2h368.8C420.6,293.2,429.4,301.6,429.4,312L429.4,312z"/>
</g>
<path style="fill:#231F20;" d="M410.2,286h-4.4V52h4.4c14.4,0,26-11.6,26-26s-11.6-26-26-26H41.4c-14.4,0-26,11.6-26,26
	s11.6,26,26,26h4.4v234h-4.4c-14.4,0-26,11.6-26,26s11.6,26,26,26h169.2L123,440.4c-2.4,2.8-2.4,7.6,0.8,10c1.2,1.2,2.8,1.6,4.8,1.6
	s4-0.8,5.2-2.4l46.8-54.4h90.8l46.4,54.4c1.6,1.6,3.2,2.4,5.2,2.4c1.6,0,3.2-0.4,4.8-1.6c2.8-2.4,3.2-7.2,0.8-10l-87.2-102h169.2
	c14.4,0,26-11.6,26-26C436.6,297.6,424.6,286,410.2,286z M29.4,26c0-6.8,5.2-12,12-12h368.8c6.8,0,12,5.2,12,12s-5.2,12-12,12h-11.6
	H53H41.4C34.6,38,29.4,32.4,29.4,26z M60.2,52h331.2v234H60.2V52z M192.6,381.2l33.2-39.2l33.2,38.8h-66.4V381.2z M410.2,324H41.4
	c-6.8,0-12-5.2-12-12s5.2-12,12-12H53h345.6h11.6c6.8,0,12,5.2,12,12S417,324,410.2,324z"/>
<g>
</g>
<g>
</g>
<g>
</g>
<g>
</g>
<g>
</g>
<g>
</g>
<g>
</g>
<g>
</g>
<g>
</g>
<g>
</g>
<g>
</g>
<g>
</g>
<g>
</g>
<g>
</g>
<g>
</g>
</svg>
